<mxfile host="app.diagrams.net" modified="2023-09-24T06:50:11.174Z" agent="Mozilla/5.0 (Macintosh; Intel Mac OS X 10_15_7) AppleWebKit/537.36 (KHTML, like Gecko) Chrome/117.0.0.0 Safari/537.36 Edg/117.0.2045.35" version="21.8.1" etag="OBXgCGm_KS0sCTcPT3bh" type="github">
  <diagram name="第 1 页" id="JlenGfkgMT15NGeVGKaZ">
    <mxGraphModel>
      <root>
        <mxCell id="0" />
        <mxCell id="1" parent="0" />
      </root>
    </mxGraphModel>
  </diagram>
</mxfile>
